<svg
   xmlns="http://www.w3.org/2000/svg"
   xmlns:svg="http://www.w3.org/2000/svg"
   viewBox="0 0 447 428">
  <defs
     id="defs109" />
  <circle
     style="fill:#000302;stroke-width:0.133333;"
     id="circle"
     cx="128.13466"
     cy="128.13466"
     r="128.13466" />
  <path
     d="m 53.073713,94.494083 c 2.006854,1.67388 3.023781,3.16777 4.499674,5.39961 0.539961,0.683947 1.079923,1.376897 1.628883,2.078847 1.565887,3.54574 1.682878,6.71351 1.070923,10.52024 -1.511891,2.97878 -2.681808,4.78765 -5.453607,6.64152 -1.745873,0.55796 -1.745873,0.55796 -4.445677,0.55796 -0.179987,-0.62096 -0.368973,-1.23291 -0.55796,-1.87187 -0.242982,-0.80994 -0.485965,-1.61988 -0.737946,-2.45682 -0.233983,-0.80994 -0.476966,-1.61088 -0.728947,-2.43882 -0.494965,-1.64688 -1.025926,-3.29376 -1.574886,-4.93164 -6.48853,-1.61989 -12.00513,-1.52089 -18.007695,1.45789 -3.176769,2.20484 -4.463676,4.73366 -5.390609,8.44139 -0.530961,4.38268 -0.584957,8.31539 0.953931,12.49109 6.047562,6.62352 14.533946,10.00728 23.4523,10.51124 7.838431,-0.38697 13.715007,-4.69766 18.91663,-10.25026 2.222839,-2.59181 4.310687,-5.28261 6.389537,-7.99142 7.604448,-9.87228 16.873774,-19.18661 29.481856,-21.85941 8.63938,-1.079927 16.42381,0.57596 23.5693,5.62459 0.53996,0.52196 1.07092,1.03492 1.62888,1.57489 1.93486,-0.96294 3.86972,-1.93486 5.79558,-2.92479 0.75594,-0.39597 1.52089,-0.78295 2.30383,-1.17892 0.76494,-0.39597 1.52089,-0.78294 2.30383,-1.18791 6.73151,-3.095777 14.62394,-2.816797 21.59844,-0.61196 10.63723,4.33769 17.77371,13.40003 24.69421,22.1564 6.26354,7.81143 12.54509,14.34496 22.78634,16.60379 6.8935,0.36898 15.53288,-1.97085 20.96848,-6.25454 4.29269,-4.62567 5.46261,-7.81144 5.27362,-14.12898 -0.81894,-4.88664 -3.32076,-8.88236 -7.37046,-11.77115 -4.1307,-2.00685 -8.3874,-2.34883 -12.79708,-1.11591 -2.39382,0.89993 -4.22069,1.79087 -5.85857,3.78872 -0.70195,2.8078 -0.61196,5.44461 -0.50396,8.3244 -4.06771,-0.47697 -6.65052,-2.06085 -9.89929,-4.49968 -1.77287,-3.55474 -1.2959,-7.82943 -0.89993,-11.69915 2.59181,-5.282617 6.30854,-8.459387 11.75315,-10.57423 8.88235,-2.663807 17.76471,-1.556887 26.04411,2.474823 8.03641,5.165617 14.54294,14.218967 16.64879,23.569287 0.18899,1.4399 0.34198,2.87979 0.44997,4.32869 0.063,0.72894 0.12599,1.45789 0.18898,2.20484 0.42297,10.00727 -2.51981,17.44073 -9.18833,24.7932 -0.45897,0.56696 -0.92693,1.13392 -1.3949,1.70987 -5.79558,6.58753 -14.29996,10.06127 -22.90334,10.88921 -2.28583,0.081 -4.57167,0.117 -6.8575,0.108 -1.15192,0.009 -2.29483,0.009 -3.47375,0.009 -2.6818,-0.099 -5.05763,-0.38698 -7.66744,-1.01693 0,0.89094 0,1.78187 0,2.6998 -23.74028,-0.89993 -49.46942,-6.35354 -68.37705,-21.46344 -1.73687,-1.21491 -1.73687,-1.21491 -3.66273,-0.89993 -1.90786,0.82794 -3.20377,1.78187 -4.79665,3.12277 -9.26933,7.14548 -20.03255,10.74522 -31.155743,13.841 -0.872936,0.26098 -1.745873,0.51296 -2.645806,0.78294 -9.692297,2.67281 -21.445445,5.30961 -31.551714,4.61666 -0.890936,-0.89093 -0.890936,-0.89093 -1.79987,-1.79987 -2.573813,-0.081 -5.075632,-0.081 -7.649445,0 -13.607014,0.16199 -24.325236,-3.24876 -34.647488,-12.59908 -6.2905434,-6.47053 -8.1624076,-13.97599 -8.4953835,-22.84035 0.2879791,-10.09726 3.3027605,-18.43066 10.2952535,-25.75613 0.494964,-0.51296 0.980928,-1.03492 1.493891,-1.56589 9.332324,-8.846351 24.721208,-11.249177 36.303368,-5.633587 z"
     fill="#000302"
     id="beard"
     style="fill:#ffffff" />
</svg>
